<svg width="213" height="142" viewBox="0 0 213 142" fill="none" xmlns="http://www.w3.org/2000/svg">
<path d="M104.934 114.914C104.934 143.77 81.5411 167.163 52.6847 167.163C23.8283 167.163 0.435608 143.77 0.435608 114.914C0.435608 99.7 6.93825 86.0047 17.3159 76.4558C26.6213 67.8934 39.0424 62.665 52.6847 62.665C81.5411 62.665 104.934 86.0577 104.934 114.914Z" fill="white" fill-opacity="0.12"/>
<path d="M104.934 114.914C104.934 143.77 81.5411 167.163 52.6847 167.163H203.479C174.623 167.163 151.23 143.77 151.23 114.914C151.23 111.228 151.612 107.631 152.338 104.161C149.877 104.516 147.361 104.7 144.802 104.7C119.441 104.7 98.3003 86.6315 93.5508 62.665H59.4683H52.6847C81.5411 62.665 104.934 86.0577 104.934 114.914Z" fill="white" fill-opacity="0.12"/>
<path d="M93.5508 62.665C92.8962 59.3618 92.5529 55.9466 92.5529 52.4511C92.5529 47.8605 93.145 43.4081 94.2568 39.1662C89.8907 46.9991 76.8204 62.665 59.4683 62.665H93.5508Z" fill="white" fill-opacity="0.12"/>
<path fill-rule="evenodd" clip-rule="evenodd" d="M203.479 167.163C232.336 167.163 255.728 143.77 255.728 114.914C255.728 86.0577 232.336 62.665 203.479 62.665C200.92 62.665 198.404 62.849 195.943 63.2044C191.49 84.4927 174.079 101.02 152.338 104.161C151.612 107.631 151.23 111.228 151.23 114.914C151.23 143.77 174.623 167.163 203.479 167.163Z" fill="white" fill-opacity="0.12"/>
<path d="M195.943 63.2044C191.49 84.4927 174.079 101.02 152.338 104.161C156.792 82.8725 174.202 66.3451 195.943 63.2044Z" fill="white" fill-opacity="0.12"/>
<path d="M197.051 52.4511C197.051 23.5948 173.658 0.202049 144.802 0.202049C120.536 0.202049 100.134 16.7439 94.2568 39.1662C93.145 43.4081 92.5529 47.8605 92.5529 52.4511C92.5529 55.9466 92.8962 59.3618 93.5508 62.665C98.3003 86.6315 119.441 104.7 144.802 104.7C147.361 104.7 149.877 104.516 152.338 104.161C156.792 82.8725 174.202 66.3451 195.943 63.2044C196.669 59.7341 197.051 56.1372 197.051 52.4511Z" fill="white" fill-opacity="0.12"/>
</svg>
