<svg width="28" height="28" viewBox="0 0 28 28" fill="none" xmlns="http://www.w3.org/2000/svg">
<path d="M24.8991 20.0956L19.9801 15.1681V11.5147C19.9807 11.4036 19.9594 11.2935 19.9174 11.1907C19.8755 11.0879 19.8136 10.9944 19.7354 10.9156L11.2979 2.4781C11.2195 2.39901 11.1261 2.33624 11.0233 2.29341C10.9205 2.25057 10.8102 2.22852 10.6988 2.22852C10.5874 2.22852 10.4772 2.25057 10.3743 2.29341C10.2715 2.33624 10.1782 2.39901 10.0998 2.4781L2.50602 10.0718C2.42694 10.1503 2.36417 10.2436 2.32133 10.3464C2.27849 10.4492 2.25644 10.5595 2.25644 10.6709C2.25644 10.7823 2.27849 10.8926 2.32133 10.9954C2.36417 11.0982 2.42694 11.1915 2.50602 11.27L10.9435 19.7075C11.0224 19.7857 11.1159 19.8475 11.2187 19.8895C11.3215 19.9315 11.4315 19.9528 11.5426 19.9522H15.2045L20.1235 24.8797C20.7568 25.5129 21.6157 25.8687 22.5113 25.8687C23.4069 25.8687 24.2659 25.5129 24.8991 24.8797C25.5324 24.2464 25.8882 23.3874 25.8882 22.4918C25.8882 21.5962 25.5324 20.7373 24.8991 20.104V20.0956ZM5.63633 9.32935L7.56852 11.27L8.76664 10.0718L6.82602 8.13966L8.16758 6.7981L11.7873 10.4262L12.9854 9.2281L9.35727 5.60841L10.6988 4.26685L16.2591 9.82716L9.85508 16.2312L4.29477 10.6709L5.63633 9.32935ZM23.701 23.6731C23.3848 23.9874 22.9571 24.1638 22.5113 24.1638C22.0655 24.1638 21.6378 23.9874 21.3216 23.6731L16.1495 18.5093C15.9697 18.3857 15.7653 18.3022 15.5504 18.2647H11.8885L11.0448 17.4209L17.4488 11.0168L18.2926 11.8606V15.5225C18.2935 15.7438 18.3814 15.9559 18.5373 16.1131L23.701 21.2937C24.0153 21.6099 24.1917 22.0376 24.1917 22.4834C24.1917 22.9292 24.0153 23.3569 23.701 23.6731Z" fill="url(#paint0_linear_12_866)"/>
<path d="M23.701 23.6731C23.3848 23.9874 22.9571 24.1638 22.5113 24.1638C22.0655 24.1638 21.6378 23.9874 21.3216 23.6731L16.1495 18.5093C15.9697 18.3857 15.7653 18.3022 15.5504 18.2647H11.8885L11.0448 17.4209L17.4488 11.0168L18.2926 11.8606V15.5225C18.2935 15.7438 18.3814 15.9559 18.5373 16.1131L23.701 21.2937C24.0153 21.6099 24.1917 22.0376 24.1917 22.4834C24.1917 22.9292 24.0153 23.3569 23.701 23.6731Z" fill="url(#paint1_linear_12_866)"/>
<defs>
<linearGradient id="paint0_linear_12_866" x1="14.0723" y1="2.22852" x2="14.0723" y2="25.8687" gradientUnits="userSpaceOnUse">
<stop stop-color="#FFA764"/>
<stop offset="1" stop-color="#F17F29"/>
</linearGradient>
<linearGradient id="paint1_linear_12_866" x1="14.0723" y1="2.22852" x2="14.0723" y2="25.8687" gradientUnits="userSpaceOnUse">
<stop stop-color="#FFA764"/>
<stop offset="1" stop-color="#F17F29"/>
</linearGradient>
</defs>
</svg>
