<svg width="36" height="36" viewBox="0 0 36 36" fill="none" xmlns="http://www.w3.org/2000/svg">
<path d="M32.289 17.0429C30.9551 11.0125 28.9477 7.79381 25.9699 6.91462C25.3439 6.73102 24.6946 6.63929 24.0423 6.64231C23.1801 6.64231 22.4292 6.85236 21.6349 7.07499C20.6777 7.34353 19.5904 7.64854 18.005 7.64854C16.4195 7.64854 15.3315 7.34416 14.3725 7.07562C13.5776 6.85236 12.8273 6.64231 11.9676 6.64231C11.2931 6.63998 10.6215 6.73141 9.97214 6.914C7.01006 7.78941 5.0039 11.0068 3.65053 17.0391C2.19527 23.5306 2.91158 27.629 5.6592 28.5799C6.03583 28.7127 6.43211 28.7811 6.83146 28.7824C8.71373 28.7824 10.2231 27.2146 11.2544 25.931C12.4198 24.4783 13.7838 23.7412 18.005 23.7412C21.7752 23.7412 23.3354 24.2525 24.6832 25.931C25.5303 26.9863 26.3309 27.7246 27.1295 28.1894C28.1917 28.8069 29.2533 28.944 30.2841 28.59C31.9079 28.0359 32.8386 26.5712 33.0512 24.2355C33.2128 22.4445 32.9638 20.0918 32.289 17.0429ZM14.9863 16.7046H12.9738V18.717C12.9738 18.9839 12.8678 19.2398 12.6791 19.4285C12.4904 19.6172 12.2345 19.7232 11.9676 19.7232C11.7007 19.7232 11.4448 19.6172 11.2561 19.4285C11.0674 19.2398 10.9614 18.9839 10.9614 18.717V16.7046H8.94893C8.68206 16.7046 8.42613 16.5986 8.23742 16.4099C8.04872 16.2211 7.94271 15.9652 7.94271 15.6983C7.94271 15.4315 8.04872 15.1755 8.23742 14.9868C8.42613 14.7981 8.68206 14.6921 8.94893 14.6921H10.9614V12.6797C10.9614 12.4128 11.0674 12.1569 11.2561 11.9682C11.4448 11.7795 11.7007 11.6734 11.9676 11.6734C12.2345 11.6734 12.4904 11.7795 12.6791 11.9682C12.8678 12.1569 12.9738 12.4128 12.9738 12.6797V14.6921H14.9863C15.2532 14.6921 15.5091 14.7981 15.6978 14.9868C15.8865 15.1755 15.9925 15.4315 15.9925 15.6983C15.9925 15.9652 15.8865 16.2211 15.6978 16.4099C15.5091 16.5986 15.2532 16.7046 14.9863 16.7046ZM20.269 16.9561C20.0202 16.9561 19.777 16.8824 19.5702 16.7442C19.3633 16.6059 19.2021 16.4095 19.1069 16.1797C19.0117 15.9498 18.9868 15.6969 19.0354 15.453C19.0839 15.209 19.2037 14.9849 19.3796 14.809C19.5555 14.6331 19.7796 14.5133 20.0236 14.4647C20.2676 14.4162 20.5205 14.4411 20.7503 14.5363C20.9801 14.6315 21.1766 14.7927 21.3148 14.9996C21.453 15.2064 21.5268 15.4496 21.5268 15.6983C21.5268 16.0319 21.3942 16.3519 21.1584 16.5877C20.9225 16.8236 20.6026 16.9561 20.269 16.9561ZM23.0361 19.7232C22.7872 19.7232 22.5439 19.6494 22.337 19.5111C22.1301 19.3727 21.9689 19.1761 21.8738 18.9461C21.7786 18.7161 21.7539 18.463 21.8027 18.2189C21.8515 17.9749 21.9716 17.7507 22.1478 17.575C22.324 17.3992 22.5485 17.2796 22.7926 17.2315C23.0368 17.1833 23.2898 17.2087 23.5196 17.3043C23.7494 17.4 23.9456 17.5617 24.0834 17.769C24.2213 17.9762 24.2945 18.2197 24.2939 18.4686C24.293 18.8016 24.1602 19.1208 23.9244 19.356C23.6886 19.5912 23.3691 19.7232 23.0361 19.7232ZM23.0361 14.189C22.7873 14.189 22.5441 14.1152 22.3373 13.977C22.1305 13.8388 21.9692 13.6424 21.8741 13.4126C21.7789 13.1827 21.7539 12.9298 21.8025 12.6858C21.851 12.4419 21.9708 12.2177 22.1467 12.0418C22.3226 11.8659 22.5467 11.7461 22.7907 11.6976C23.0347 11.6491 23.2876 11.674 23.5174 11.7692C23.7473 11.8644 23.9437 12.0256 24.0819 12.2324C24.2201 12.4393 24.2939 12.6825 24.2939 12.9312C24.2939 13.2648 24.1614 13.5847 23.9255 13.8206C23.6896 14.0565 23.3697 14.189 23.0361 14.189ZM25.8032 16.9561C25.5544 16.9561 25.3113 16.8824 25.1044 16.7442C24.8976 16.6059 24.7364 16.4095 24.6412 16.1797C24.546 15.9498 24.5211 15.6969 24.5696 15.453C24.6181 15.209 24.7379 14.9849 24.9138 14.809C25.0897 14.6331 25.3138 14.5133 25.5578 14.4647C25.8018 14.4162 26.0547 14.4411 26.2845 14.5363C26.5144 14.6315 26.7108 14.7927 26.849 14.9996C26.9872 15.2064 27.061 15.4496 27.061 15.6983C27.061 16.0319 26.9285 16.3519 26.6926 16.5877C26.4567 16.8236 26.1368 16.9561 25.8032 16.9561Z" fill="url(#paint0_linear_12_871)"/>
<defs>
<linearGradient id="paint0_linear_12_871" x1="18.0063" y1="6.64224" x2="18.0063" y2="28.7824" gradientUnits="userSpaceOnUse">
<stop stop-color="#22B04A"/>
<stop offset="1" stop-color="#1E9540"/>
</linearGradient>
</defs>
</svg>
