<svg width="36" height="36" viewBox="0 0 36 36" fill="none" xmlns="http://www.w3.org/2000/svg">
<path d="M18.1416 4.87869C17.4416 4.87869 17.2083 5.34536 16.7416 5.81203L3.20828 27.9787C2.97495 28.212 2.97495 28.6787 2.97495 28.912C2.97495 30.0787 3.90828 30.5454 4.60828 30.5454H31.6749C32.6083 30.5454 33.3083 30.0787 33.3083 28.912C33.3083 28.4454 33.3083 28.4454 33.0749 27.9787L19.7749 5.81203C19.3083 5.34536 18.8416 4.87869 18.1416 4.87869ZM18.1416 8.37869L25.8416 21.212H23.9749L20.4749 17.712L18.1416 21.212L15.8083 17.712L12.3083 21.212H10.2083L18.1416 8.37869Z" fill="url(#paint0_linear_12_858)"/>
<defs>
<linearGradient id="paint0_linear_12_858" x1="18.1416" y1="4.87869" x2="18.1416" y2="30.5454" gradientUnits="userSpaceOnUse">
<stop stop-color="#7CB4F9"/>
<stop offset="1" stop-color="#6DA2E4"/>
</linearGradient>
</defs>
</svg>
