<svg width="20" height="20" viewBox="0 0 20 20" fill="none" xmlns="http://www.w3.org/2000/svg">
<path d="M12.7 18.5583H12.5916C8.89164 18.5583 7.10831 17.1 6.79997 13.8333C6.76664 13.4917 7.01664 13.1833 7.36664 13.15C7.70831 13.1167 8.01664 13.375 8.04997 13.7167C8.29164 16.3333 9.52497 17.3083 12.6 17.3083H12.7083C16.1 17.3083 17.3 16.1083 17.3 12.7167V7.28333C17.3 3.89167 16.1 2.69167 12.7083 2.69167H12.6C9.50831 2.69167 8.27497 3.68333 8.04997 6.35C8.00831 6.69167 7.72497 6.95 7.36664 6.91667C7.01664 6.89167 6.76664 6.58333 6.79164 6.24167C7.07497 2.925 8.86664 1.44167 12.5916 1.44167H12.7C16.7916 1.44167 18.5416 3.19167 18.5416 7.28333V12.7167C18.5416 16.8083 16.7916 18.5583 12.7 18.5583Z" fill="white"/>
<path d="M12.4 10.625H1.66669C1.32502 10.625 1.04169 10.3417 1.04169 10C1.04169 9.65833 1.32502 9.375 1.66669 9.375H12.4C12.7417 9.375 13.025 9.65833 13.025 10C13.025 10.3417 12.75 10.625 12.4 10.625Z" fill="white"/>
<path d="M10.5417 13.4167C10.3833 13.4167 10.225 13.3583 10.1 13.2333C9.85835 12.9917 9.85835 12.5917 10.1 12.35L12.45 10L10.1 7.65C9.85835 7.40834 9.85835 7.00834 10.1 6.76667C10.3417 6.525 10.7417 6.525 10.9833 6.76667L13.775 9.55834C14.0167 9.8 14.0167 10.2 13.775 10.4417L10.9833 13.2333C10.8583 13.3583 10.7 13.4167 10.5417 13.4167Z" fill="white"/>
</svg>
