<svg width="31" height="31" viewBox="0 0 31 31" fill="none" xmlns="http://www.w3.org/2000/svg">
<path d="M19.1812 5.10209V10.0104H17.2437V5.10209C17.2437 4.75334 16.9337 4.58542 16.7271 4.58542C16.6625 4.58542 16.5979 4.59834 16.5333 4.62417L6.29041 8.48625C5.60582 8.74459 5.16666 9.39042 5.16666 10.1267V10.9921C3.99124 11.8704 3.22916 13.2783 3.22916 14.8671V10.1267C3.22916 8.58958 4.17207 7.22042 5.60582 6.67792L15.8617 2.80292C16.1458 2.69959 16.4429 2.64792 16.7271 2.64792C18.0187 2.64792 19.1812 3.69417 19.1812 5.10209Z" fill="#25C935"/>
<path d="M27.7708 18.7292V20.0208C27.7708 20.3696 27.4996 20.6538 27.1379 20.6667H25.2521C24.5675 20.6667 23.9475 20.1629 23.8958 19.4913C23.8571 19.0908 24.0121 18.7163 24.2704 18.4579C24.5029 18.2125 24.8258 18.0833 25.1746 18.0833H27.125C27.4996 18.0963 27.7708 18.3804 27.7708 18.7292Z" fill="#25C935"/>
<path d="M25.1617 16.7271H26.4792C27.1896 16.7271 27.7708 16.1458 27.7708 15.4354V14.8671C27.7708 12.1933 25.5879 10.0104 22.9142 10.0104H8.08582C6.98791 10.0104 5.98041 10.3721 5.16666 10.9921C3.99124 11.8704 3.22916 13.2783 3.22916 14.8671V23.56C3.22916 26.2337 5.41207 28.4167 8.08582 28.4167H22.9142C25.5879 28.4167 27.7708 26.2337 27.7708 23.56V23.3146C27.7708 22.6042 27.1896 22.0229 26.4792 22.0229H25.3554C24.1154 22.0229 22.9271 21.2608 22.6042 20.0596C22.3329 19.0779 22.6558 18.135 23.3017 17.5021C23.7796 17.0112 24.4383 16.7271 25.1617 16.7271ZM18.0833 16.4687H9.04166C8.51207 16.4687 8.07291 16.0296 8.07291 15.5C8.07291 14.9704 8.51207 14.5312 9.04166 14.5312H18.0833C18.6129 14.5312 19.0521 14.9704 19.0521 15.5C19.0521 16.0296 18.6129 16.4687 18.0833 16.4687Z" fill="#25C935"/>
</svg>
